<?xml version="1.0" encoding="UTF-8" standalone="no"?>
<svg
   xmlns:dc="http://purl.org/dc/elements/1.1/"
   xmlns:cc="http://creativecommons.org/ns#"
   xmlns:rdf="http://www.w3.org/1999/02/22-rdf-syntax-ns#"
   xmlns:svg="http://www.w3.org/2000/svg"
   xmlns="http://www.w3.org/2000/svg"
   xmlns:sodipodi="http://sodipodi.sourceforge.net/DTD/sodipodi-0.dtd"
   xmlns:inkscape="http://www.inkscape.org/namespaces/inkscape"
   width="512"
   height="512"
   version="1.1"
   id="svg12"
   sodipodi:docname="attack-active.svg"
   inkscape:version="0.92.4 (5da689c313, 2019-01-14)">
  <metadata
     id="metadata18">
    <rdf:RDF>
      <cc:Work
         rdf:about="">
        <dc:format>image/svg+xml</dc:format>
        <dc:type
           rdf:resource="http://purl.org/dc/dcmitype/StillImage" />
        <dc:title></dc:title>
      </cc:Work>
    </rdf:RDF>
  </metadata>
  <defs
     id="defs16" />
  <sodipodi:namedview
     pagecolor="#ffffff"
     bordercolor="#666666"
     borderopacity="1"
     objecttolerance="10"
     gridtolerance="10"
     guidetolerance="10"
     inkscape:pageopacity="0"
     inkscape:pageshadow="2"
     inkscape:window-width="1062"
     inkscape:window-height="790"
     id="namedview14"
     showgrid="false"
     inkscape:zoom="0.921875"
     inkscape:cx="210.06846"
     inkscape:cy="259.90516"
     inkscape:window-x="383"
     inkscape:window-y="154"
     inkscape:window-maximized="0"
     inkscape:current-layer="svg12" />
  <g
     id="g5">
    <title
       id="title2">background</title>
    <rect
       fill="none"
       id="canvas_background"
       height="402"
       width="582"
       y="-1"
       x="-1" />
  </g>
  <g
     id="g10"
     style="fill:#ffff00">
    <title
       id="title7">Layer 1</title>
    <path
       id="svg_2"
       d="m47.933,404.576c-7.945,7.946 -12.321,18.51 -12.321,29.746c0,11.237 4.376,21.801 12.321,29.743c7.945,7.947 18.51,12.323 29.747,12.323c11.236,0 21.8,-4.376 29.746,-12.322c5.617,-5.619 9.456,-12.56 11.22,-20.217l28.358,-28.357c0.001,-0.001 0.002,-0.003 0.004,-0.004s0.003,-0.003 0.004,-0.005l17.531,-17.531l21.987,21.987c1.688,1.688 3.978,2.636 6.364,2.636c2.388,0 4.677,-0.948 6.364,-2.637l21.254,-21.258c3.515,-3.515 3.515,-9.213 0,-12.728l-19.662,-19.662l192.32,-138.969c2.116,-1.529 3.465,-3.903 3.693,-6.505l9.27,-105.193c0.234,-2.652 -0.719,-5.271 -2.601,-7.154c-1.883,-1.882 -4.503,-2.832 -7.154,-2.601l-105.193,9.27c-2.602,0.229 -4.976,1.577 -6.505,3.693l-138.971,192.318l-19.663,-19.664c-1.688,-1.688 -3.978,-2.636 -6.364,-2.636s-4.676,0.948 -6.364,2.636l-21.256,21.256c-3.515,3.515 -3.515,9.214 0,12.729l21.985,21.985l-45.9,45.899c-7.657,1.767 -14.596,5.606 -20.214,11.222zm29.747,53.813c-6.429,0 -12.473,-2.504 -17.02,-7.052c-4.546,-4.544 -7.049,-10.586 -7.049,-17.015c0,-6.428 2.504,-12.472 7.048,-17.017c3.635,-3.633 8.23,-5.969 13.292,-6.755c0.001,0 0.002,0 0.003,0c1.229,-0.191 2.483,-0.288 3.729,-0.288c6.429,0 12.472,2.502 17.013,7.04c0.676,0.677 1.307,1.39 1.891,2.134c4.09,5.212 5.894,11.977 4.862,18.609c-0.785,5.063 -3.12,9.661 -6.752,13.294c-4.546,4.547 -10.589,7.05 -17.017,7.05zm219.181,-325.682l90.398,-7.966l-7.966,90.398l-191.335,138.258l-8.313,-8.314l161.979,-161.978c3.515,-3.515 3.515,-9.214 0,-12.729c-3.515,-3.513 -9.212,-3.515 -12.729,0l-161.979,161.978l-8.314,-8.314l138.259,-191.333zm-177.179,177.87l81.739,81.741l-8.527,8.528l-21.949,-21.949c-0.013,-0.013 -0.022,-0.026 -0.035,-0.039l-37.77,-37.768c-0.004,-0.004 -0.009,-0.008 -0.013,-0.012l-21.974,-21.974l8.529,-8.527zm32.133,74.647l-11.172,11.172l-25.039,-25.042l11.17,-11.17l25.041,25.04zm-48.938,-1.143l25.039,25.042l-10.754,10.754c-0.058,-0.158 -0.126,-0.312 -0.186,-0.47c-0.127,-0.335 -0.261,-0.668 -0.396,-1c-0.162,-0.4 -0.331,-0.797 -0.506,-1.191c-0.146,-0.33 -0.297,-0.656 -0.451,-0.982c-0.186,-0.391 -0.379,-0.777 -0.576,-1.162c-0.164,-0.32 -0.329,-0.638 -0.501,-0.953c-0.21,-0.384 -0.429,-0.763 -0.65,-1.141c-0.18,-0.305 -0.357,-0.611 -0.545,-0.912c-0.237,-0.381 -0.485,-0.755 -0.734,-1.129c-0.191,-0.287 -0.379,-0.575 -0.577,-0.857c-0.271,-0.387 -0.557,-0.763 -0.842,-1.141c-0.194,-0.258 -0.383,-0.519 -0.584,-0.772c-0.328,-0.415 -0.674,-0.817 -1.019,-1.221c-0.175,-0.204 -0.341,-0.414 -0.521,-0.615c-0.532,-0.599 -1.082,-1.185 -1.651,-1.755c-0.524,-0.524 -1.062,-1.031 -1.608,-1.523c-0.184,-0.165 -0.373,-0.32 -0.559,-0.482c-0.368,-0.32 -0.737,-0.64 -1.114,-0.946c-0.229,-0.185 -0.462,-0.361 -0.693,-0.542c-0.346,-0.268 -0.69,-0.535 -1.043,-0.792c-0.25,-0.183 -0.505,-0.358 -0.759,-0.534c-0.344,-0.24 -0.689,-0.477 -1.04,-0.705c-0.265,-0.173 -0.53,-0.34 -0.798,-0.506c-0.35,-0.217 -0.702,-0.43 -1.057,-0.635c-0.275,-0.16 -0.55,-0.316 -0.828,-0.47c-0.359,-0.198 -0.723,-0.389 -1.088,-0.575c-0.279,-0.143 -0.557,-0.286 -0.838,-0.422c-0.379,-0.184 -0.762,-0.357 -1.146,-0.529c-0.274,-0.122 -0.547,-0.248 -0.824,-0.365c-0.412,-0.174 -0.83,-0.334 -1.248,-0.494c-0.21,-0.081 -0.416,-0.172 -0.627,-0.249l10.724,-10.726z"
       style="fill:#ffff00" />
  </g>
</svg>
