<?xml version="1.0" encoding="UTF-8" standalone="no"?>
<svg
   xmlns:dc="http://purl.org/dc/elements/1.1/"
   xmlns:cc="http://creativecommons.org/ns#"
   xmlns:rdf="http://www.w3.org/1999/02/22-rdf-syntax-ns#"
   xmlns:svg="http://www.w3.org/2000/svg"
   xmlns="http://www.w3.org/2000/svg"
   xmlns:sodipodi="http://sodipodi.sourceforge.net/DTD/sodipodi-0.dtd"
   xmlns:inkscape="http://www.inkscape.org/namespaces/inkscape"
   height="32px"
   version="1.1"
   viewBox="0 0 32 32"
   width="32px"
   id="svg9"
   sodipodi:docname="sunrise.svg"
   inkscape:version="0.92.4 (5da689c313, 2019-01-14)">
  <metadata
     id="metadata13">
    <rdf:RDF>
      <cc:Work
         rdf:about="">
        <dc:format>image/svg+xml</dc:format>
        <dc:type
           rdf:resource="http://purl.org/dc/dcmitype/StillImage" />
      </cc:Work>
    </rdf:RDF>
  </metadata>
  <sodipodi:namedview
     pagecolor="#ffffff"
     bordercolor="#666666"
     borderopacity="1"
     objecttolerance="10"
     gridtolerance="10"
     guidetolerance="10"
     inkscape:pageopacity="0"
     inkscape:pageshadow="2"
     inkscape:window-width="1482"
     inkscape:window-height="814"
     id="namedview11"
     showgrid="false"
     inkscape:zoom="20.85965"
     inkscape:cx="25.934651"
     inkscape:cy="20.756402"
     inkscape:window-x="0"
     inkscape:window-y="3"
     inkscape:window-maximized="0"
     inkscape:current-layer="svg9" />
  <title
     id="title2" />
  <defs
     id="defs4" />
  <g
     id="Icons new Arranged Names"
     transform="matrix(1.4554247,0,0,1.4554247,-7.2771235,-9.6433977)"
     style="fill:none;fill-rule:evenodd;stroke:none;stroke-width:1">
    <g
       id="56 Sunrise"
       style="fill:#000000">
      <path
         d="m 19.998837,18.996965 c 0,-2.20853 -1.79034,-3.998896 -3.998837,-3.998896 -2.208497,0 -3.998837,1.790366 -3.998837,3.998896 0,0.345209 0.04374,0.680202 0.125981,0.999724 h -2.042465 c -0.05454,-0.325128 -0.08293,-0.659111 -0.08293,-0.999724 0,-3.312794 2.685511,-5.998345 5.998256,-5.998345 3.312745,0 5.998256,2.685551 5.998256,5.998345 0,0.340613 -0.02839,0.674596 -0.08294,0.999724 h -2.042465 c 0.08224,-0.319522 0.125981,-0.654515 0.125981,-0.999724 z m 0.958329,-6.36789 1.400574,-1.400577 c 0.400123,-0.400123 1.030024,-0.397044 1.420435,-0.0066 0.393132,0.393133 0.387441,1.026363 -0.0066,1.420437 L 22.371,14.042913 c -0.400122,0.400123 -1.030023,0.397043 -1.420434,0.0066 -0.393132,-0.393134 -0.387441,-1.026364 0.0066,-1.420438 z M 6.0090881,18.000426 h 1.980711 c 0.5658583,0 1.0090881,0.447586 1.0090881,0.999712 0,0.528717 -0.4085712,0.955932 -0.9279245,0.996551 H 5.9271265 C 5.4010088,19.955898 5,19.525308 5,19.000138 5,18.444163 5.4517841,18.000426 6.0090881,18.000426 Z m 20.0629869,1.996263 h -2.143836 c -0.526117,-0.04079 -0.927126,-0.471381 -0.927126,-0.996551 0,-0.555975 0.451784,-0.999712 1.009088,-0.999712 h 1.980711 c 0.565858,0 1.009088,0.447586 1.009088,0.999712 0,0.528717 -0.408571,0.955932 -0.927925,0.996551 z M 9.6422597,11.228498 11.042834,12.629075 c 0.400122,0.400123 0.397043,1.030026 0.0066,1.420438 -0.393133,0.393133 -1.026361,0.387442 -1.4204346,-0.0066 L 8.2284572,12.642303 C 7.828335,12.24218 7.8314146,11.612277 8.2218254,11.221866 8.614958,10.828732 9.2481862,10.834423 9.6422597,11.228498 Z M 15.000291,10.989806 V 9.0090904 C 15.000291,8.4432309 15.447876,8 16,8 c 0.555973,0 0.999709,0.4517852 0.999709,1.0090904 v 1.9807156 c 0,0.56586 -0.447585,1.00909 -0.999709,1.00909 -0.555973,0 -0.999709,-0.451785 -0.999709,-1.00909 z m 4.000567,10.006607 h -5.999986 l 2.999993,-3.998896 z M 9.9999886,23 c 0,-0.556135 0.4488214,-1 1.0024714,-1 h 9.99503 c 0.546711,0 1.002471,0.447715 1.002471,1 0,0.556135 -0.448821,1 -1.002471,1 H 11.00246 C 10.455749,24 9.9999886,23.552285 9.9999886,23 Z m 0,0"
         id="Oval 13"
         inkscape:connector-curvature="0" />
    </g>
  </g>
</svg>
