<?xml version="1.0" encoding="UTF-8" standalone="no"?>
<svg
   xmlns:dc="http://purl.org/dc/elements/1.1/"
   xmlns:cc="http://creativecommons.org/ns#"
   xmlns:rdf="http://www.w3.org/1999/02/22-rdf-syntax-ns#"
   xmlns:svg="http://www.w3.org/2000/svg"
   xmlns="http://www.w3.org/2000/svg"
   xmlns:sodipodi="http://sodipodi.sourceforge.net/DTD/sodipodi-0.dtd"
   xmlns:inkscape="http://www.inkscape.org/namespaces/inkscape"
   height="32px"
   version="1.1"
   viewBox="0 0 32 32"
   width="32px"
   id="svg9"
   sodipodi:docname="sunset.svg"
   inkscape:version="0.92.4 (5da689c313, 2019-01-14)">
  <metadata
     id="metadata13">
    <rdf:RDF>
      <cc:Work
         rdf:about="">
        <dc:format>image/svg+xml</dc:format>
        <dc:type
           rdf:resource="http://purl.org/dc/dcmitype/StillImage" />
      </cc:Work>
    </rdf:RDF>
  </metadata>
  <sodipodi:namedview
     pagecolor="#ffffff"
     bordercolor="#666666"
     borderopacity="1"
     objecttolerance="10"
     gridtolerance="10"
     guidetolerance="10"
     inkscape:pageopacity="0"
     inkscape:pageshadow="2"
     inkscape:window-width="1475"
     inkscape:window-height="886"
     id="namedview11"
     showgrid="false"
     inkscape:zoom="20.85965"
     inkscape:cx="15.168437"
     inkscape:cy="17.415019"
     inkscape:window-x="0"
     inkscape:window-y="3"
     inkscape:window-maximized="0"
     inkscape:current-layer="svg9" />
  <title
     id="title2" />
  <defs
     id="defs4" />
  <g
     id="Icons new Arranged Names"
     transform="matrix(1.4576027,0,0,1.4576027,-7.2879771,-4.9824655)"
     style="fill:none;fill-rule:evenodd;stroke:none;stroke-width:1">
    <g
       id="57 Sunset"
       style="fill:#000000">
      <path
         d="m 19.998846,18.996965 c 0,-2.20853 -1.790344,-3.998896 -3.998846,-3.998896 -2.208502,0 -3.998846,1.790366 -3.998846,3.998896 0,0.345209 0.04374,0.680202 0.125981,0.999724 h -2.04247 c -0.05454,-0.325128 -0.08293,-0.659111 -0.08293,-0.999724 0,-3.312794 2.685516,-5.998345 5.998269,-5.998345 3.312753,0 5.998269,2.685551 5.998269,5.998345 0,0.340613 -0.02839,0.674596 -0.08293,0.999724 h -2.04247 c 0.08224,-0.319522 0.125981,-0.654515 0.125981,-0.999724 z m 0.958331,-6.36789 1.400578,-1.400577 c 0.400123,-0.400123 1.030026,-0.397044 1.420437,-0.0066 0.393134,0.393133 0.387443,1.026363 -0.0066,1.420437 l -1.400577,1.400578 c -0.400123,0.400123 -1.030026,0.397043 -1.420437,0.0066 -0.393134,-0.393134 -0.387443,-1.026364 0.0066,-1.420438 z M 6.0090653,18.000426 h 1.9807156 c 0.5658595,0 1.0090904,0.447586 1.0090904,0.999712 0,0.528717 -0.4085722,0.955932 -0.9279267,0.996551 H 5.9271035 c -0.5261188,-0.04079 -0.9271286,-0.471381 -0.9271286,-0.996551 0,-0.555975 0.4517852,-0.999712 1.0090904,-0.999712 z m 20.0630327,1.996263 h -2.143841 c -0.526119,-0.04079 -0.927128,-0.471381 -0.927128,-0.996551 0,-0.555975 0.451785,-0.999712 1.00909,-0.999712 h 1.980716 c 0.565859,0 1.00909,0.447586 1.00909,0.999712 0,0.528717 -0.408572,0.955932 -0.927927,0.996551 z M 9.6422452,11.228498 11.042823,12.629075 c 0.400123,0.400123 0.397043,1.030026 0.0066,1.420438 -0.393133,0.393133 -1.026363,0.387442 -1.4204371,-0.0066 L 8.2284395,12.642303 C 7.8283164,12.24218 7.831396,11.612277 8.2218077,11.221866 c 0.3931335,-0.393134 1.0263631,-0.387443 1.4204375,0.0066 z M 15.000288,10.989806 V 9.0090904 C 15.000288,8.4432309 15.447875,8 16,8 c 0.555975,0 0.999712,0.4517852 0.999712,1.0090904 v 1.9807156 c 0,0.56586 -0.447587,1.00909 -0.999712,1.00909 -0.555975,0 -0.999712,-0.451785 -0.999712,-1.00909 z m 4.000577,6.007711 -3,3.998896 -3,-3.998896 z M 10,23 c 0,-0.556135 0.448823,-1 1.002473,-1 h 9.995054 C 21.544239,22 22,22.447715 22,23 c 0,0.556135 -0.448823,1 -1.002473,1 H 11.002473 C 10.455761,24 10,23.552285 10,23 Z m 0,0"
         id="Oval 13"
         inkscape:connector-curvature="0" />
    </g>
  </g>
</svg>
