<?xml version="1.0" ?><!DOCTYPE svg  PUBLIC '-//W3C//DTD SVG 1.1//EN'  'http://www.w3.org/Graphics/SVG/1.1/DTD/svg11.dtd'><svg enable-background="new 0 0 32 32" height="32px" id="Layer_1" version="1.1" viewBox="0 0 32 32" width="32px" xml:space="preserve" xmlns="http://www.w3.org/2000/svg" xmlns:xlink="http://www.w3.org/1999/xlink"><g><polyline fill="none" points="   649,137.999 675,137.999 675,155.999 661,155.999  " stroke="#FFFFFF" stroke-linecap="round" stroke-linejoin="round" stroke-miterlimit="10" stroke-width="2"/><polyline fill="none" points="   653,155.999 649,155.999 649,141.999  " stroke="#FFFFFF" stroke-linecap="round" stroke-linejoin="round" stroke-miterlimit="10" stroke-width="2"/><polyline fill="none" points="   661,156 653,162 653,156  " stroke="#FFFFFF" stroke-linecap="round" stroke-linejoin="round" stroke-miterlimit="10" stroke-width="2"/></g><g><path d="M24.034,30c-0.166,0-0.333-0.041-0.483-0.125L16,25.701l-7.55,4.174c-0.335,0.187-0.747,0.163-1.06-0.058   c-0.313-0.221-0.473-0.601-0.411-0.979l1.452-8.904L5.262,16.73c-0.388-0.393-0.385-1.026,0.008-1.414   c0.393-0.388,1.026-0.385,1.414,0.008l3.527,3.566c0.225,0.228,0.328,0.549,0.276,0.864l-1.203,7.375l6.232-3.445   c0.301-0.166,0.667-0.166,0.968,0l6.232,3.445l-1.203-7.375c-0.051-0.313,0.05-0.633,0.271-0.859l5.141-5.269l-7.059-1.078   c-0.329-0.051-0.612-0.262-0.754-0.564L16,5.354l-3.112,6.63c-0.142,0.302-0.425,0.513-0.754,0.564L3.151,13.92   c-0.544,0.086-1.056-0.291-1.14-0.838c-0.083-0.546,0.292-1.056,0.838-1.14l8.455-1.291l3.791-8.076C15.259,2.224,15.612,2,16,2   s0.741,0.224,0.905,0.575l3.791,8.076l8.455,1.291c0.37,0.057,0.678,0.316,0.797,0.671s0.029,0.748-0.232,1.016l-6.147,6.3   l1.453,8.909c0.062,0.378-0.099,0.758-0.411,0.979C24.438,29.938,24.236,30,24.034,30z"/></g></svg>